<svg width="50" height="50" viewBox="0 0 50 50" fill="none" xmlns="http://www.w3.org/2000/svg">
<g clip-path="url(#clip0_249_603)">
<path d="M5.9227 26.7076C6.08746 26.7071 6.25222 26.7064 6.41698 26.7056C6.86791 26.7038 7.31882 26.7044 7.76976 26.7054C8.25679 26.7061 8.74381 26.7045 9.23084 26.7033C10.1843 26.7011 11.1377 26.7012 12.0911 26.702C12.8662 26.7026 13.6413 26.7025 14.4164 26.7018C14.5819 26.7017 14.5819 26.7017 14.7508 26.7016C14.9751 26.7014 15.1993 26.7012 15.4236 26.701C17.5258 26.6994 19.6281 26.7002 21.7303 26.7019C23.6527 26.7033 25.575 26.7019 27.4974 26.6991C29.4723 26.6962 31.4472 26.6951 33.4221 26.6961C33.6456 26.6962 33.8691 26.6963 34.0926 26.6964C34.2025 26.6964 34.3125 26.6965 34.4257 26.6965C35.1996 26.6967 35.9734 26.6958 36.7472 26.6943C37.6907 26.6926 38.6342 26.6926 39.5777 26.6949C40.0589 26.6959 40.54 26.6963 41.0212 26.6944C41.4622 26.6928 41.9031 26.6934 42.344 26.6958C42.5031 26.6963 42.6621 26.696 42.8211 26.6947C43.9723 26.6862 45.0684 26.8272 45.9445 27.6563C46.5927 28.4204 46.9125 29.2179 46.9055 30.2125C46.9053 30.3225 46.9053 30.3225 46.9051 30.4347C46.896 30.9581 46.8226 31.3648 46.582 31.836C46.6371 31.8607 46.6923 31.8854 46.7491 31.9108C48.3591 32.779 49.3382 34.772 49.8474 36.4503C50.417 38.7352 49.9961 41.0644 48.8281 43.0665C48.6167 43.407 48.3923 43.7282 48.1445 44.0431C48.0916 44.1108 48.0387 44.1785 47.9843 44.2483C46.7082 45.7927 44.742 46.7888 42.7734 47.0704C40.0563 47.2722 37.784 46.6557 35.6994 44.8731C34.0512 43.331 33.1096 41.1901 33.01 38.9424C32.9661 37.1054 33.4472 35.3272 34.4726 33.7892C25.0302 33.7892 15.5878 33.7892 5.85932 33.7892C6.35212 36.1322 6.35212 36.1322 7.8199 37.99C8.787 38.4843 9.81022 38.4209 10.8671 38.4181C11.0574 38.4187 11.2477 38.4194 11.438 38.4202C11.8462 38.4217 12.2544 38.4222 12.6625 38.4221C13.3075 38.4219 13.9525 38.4238 14.5975 38.426C15.849 38.43 17.1005 38.4318 18.352 38.4334C19.9479 38.4356 21.5437 38.4389 23.1396 38.4439C23.7813 38.4459 24.423 38.4468 25.0647 38.4469C25.4627 38.4472 25.8607 38.4483 26.2587 38.4495C26.4438 38.4499 26.6289 38.45 26.814 38.4498C27.0658 38.4494 27.3175 38.4503 27.5693 38.4514C27.6433 38.451 27.7173 38.4507 27.7935 38.4502C28.298 38.4544 28.298 38.4544 28.5156 38.672C28.54 39.0138 28.54 39.0138 28.5156 39.3556C28.2694 39.6017 28.1171 39.5748 27.7812 39.5779C27.7054 39.5776 27.6295 39.5773 27.5514 39.577C27.4309 39.5776 27.4309 39.5776 27.3079 39.5783C27.037 39.5796 26.7662 39.5794 26.4953 39.5792C26.3017 39.5798 26.1081 39.5805 25.9145 39.5812C25.3873 39.583 24.86 39.5834 24.3327 39.5835C23.8926 39.5837 23.4524 39.5844 23.0122 39.5851C21.973 39.5867 20.9339 39.5872 19.8947 39.5871C18.8237 39.5869 17.7526 39.589 16.6816 39.5921C15.7619 39.5946 14.8422 39.5957 13.9225 39.5956C13.3734 39.5955 12.8242 39.5961 12.275 39.5981C11.7578 39.6 11.2405 39.6 10.7233 39.5986C10.534 39.5984 10.3447 39.5989 10.1554 39.6001C8.64666 39.6089 7.51392 39.4279 6.34761 38.379C5.71469 37.6502 5.42203 36.7411 5.1784 35.8224C5.12733 35.6354 5.07626 35.4483 5.02507 35.2613C4.99105 35.1337 4.95845 35.0057 4.92723 34.8773C4.75455 34.0901 4.75455 34.0901 4.23343 33.5244C3.96228 33.4267 3.69932 33.361 3.41792 33.3009C2.62604 32.8816 2.01957 32.1589 1.72724 31.3146C1.4697 30.318 1.50819 29.3597 1.99999 28.4409C2.96188 26.9706 4.25686 26.6984 5.9227 26.7076ZM35.7547 34.0062C34.485 35.6627 33.9741 37.6542 34.2246 39.7283C34.464 41.0783 34.9761 42.2007 35.8398 43.2618C35.8988 43.338 35.9579 43.4141 36.0187 43.4926C37.1394 44.8587 38.897 45.7063 40.6249 45.9657C40.755 45.978 40.8852 45.988 41.0156 45.9962C41.0921 46.0013 41.1686 46.0065 41.2475 46.0118C43.1627 46.0774 45.0511 45.363 46.5026 44.1224C47.8581 42.8343 48.8116 41.049 48.9257 39.1602C48.9335 39.033 48.9335 39.033 48.9414 38.9031C48.9969 37.0929 48.4159 35.3749 47.2656 33.9845C47.1736 33.8687 47.1736 33.8687 47.0798 33.7506C45.8591 32.2852 44.0544 31.4245 42.174 31.2283C39.6623 31.0441 37.3862 32.1121 35.7547 34.0062Z" fill="black"/>
<path d="M27.3438 3.90629C28.244 4.63765 28.9337 5.67112 29.1016 6.83598C29.1236 7.27585 29.1201 7.71408 29.1138 8.15434C29.113 8.27192 29.1121 8.38949 29.1112 8.51063C29.1089 8.79879 29.1057 9.08691 29.1016 9.37504C29.192 9.39014 29.192 9.39014 29.2841 9.40554C29.8793 9.51346 30.4097 9.67659 30.9632 9.91826C31.0429 9.95265 31.1225 9.98705 31.2046 10.0225C35.5679 11.9387 39.058 15.3851 40.8349 19.8304C41.4162 21.3443 42.1105 23.2651 41.9923 24.9024C41.8648 25.1275 41.8648 25.1275 41.6993 25.293C41.4063 25.3357 41.4063 25.3357 41.1134 25.293C40.8309 25.0777 40.7751 24.8976 40.7269 24.5522C40.7065 24.4174 40.7065 24.4174 40.6856 24.2799C40.6717 24.1832 40.6577 24.0865 40.6434 23.9869C40.0635 20.3749 38.4842 17.2696 35.9376 14.6485C35.8858 14.5945 35.8339 14.5406 35.7806 14.485C32.9186 11.5521 28.7465 10.0205 24.7071 9.86332C20.3514 9.8161 16.0366 11.3142 12.8823 14.37C12.8343 14.4172 12.7862 14.4644 12.7367 14.513C12.6077 14.6388 12.4758 14.7616 12.3437 14.8842C11.1765 15.9921 10.3007 17.3251 9.57039 18.75C9.53616 18.8161 9.50194 18.8822 9.46667 18.9502C8.56271 20.7148 8.10736 22.5435 7.76546 24.4865C7.74929 24.5743 7.73311 24.6621 7.71644 24.7525C7.70212 24.8325 7.6878 24.9126 7.67305 24.9951C7.61726 25.1954 7.61726 25.1954 7.42195 25.3907C6.91681 25.4444 6.91681 25.4444 6.67084 25.2808C6.34083 24.808 6.5886 23.927 6.68509 23.3822C7.31911 20.1468 8.61853 17.2073 10.8399 14.7461C10.9601 14.6059 11.0801 14.4655 11.2 14.325C13.2591 11.9982 16.0773 10.2788 19.043 9.37504C19.1397 9.37504 19.2364 9.37504 19.336 9.37504C19.3337 9.2547 19.3315 9.13435 19.3291 9.01036C19.306 7.28027 19.4277 5.84194 20.6055 4.49223C20.6521 4.43306 20.6987 4.3739 20.7467 4.31294C22.3825 2.42021 25.4571 2.52228 27.3438 3.90629Z" fill="black"/>
<path d="M41.5527 33.4595C41.8441 33.5032 41.9113 33.5602 42.0898 33.7891C42.1251 33.9874 42.1251 33.9874 42.1231 34.2168C42.1231 34.3458 42.1231 34.3458 42.123 34.4774C42.1215 34.5699 42.12 34.6623 42.1185 34.7576C42.118 34.8526 42.1176 34.9475 42.1172 35.0454C42.1156 35.3489 42.1119 35.6523 42.1082 35.9558C42.1067 36.1615 42.1053 36.3672 42.1041 36.5728C42.1009 37.0772 42.0959 37.5816 42.0898 38.0859C42.2185 38.0839 42.3471 38.0818 42.4796 38.0797C42.9563 38.0727 43.4329 38.0682 43.9096 38.0645C44.116 38.0625 44.3224 38.0598 44.5288 38.0565C44.8253 38.0517 45.1217 38.0495 45.4182 38.0478C45.5569 38.0448 45.5569 38.0448 45.6984 38.0417C46.3358 38.0415 46.3358 38.0415 46.5949 38.2676C46.7061 38.5416 46.6768 38.6877 46.582 38.9648C46.3867 39.1602 46.3867 39.1602 46.2001 39.1836C46.0863 39.183 46.0863 39.183 45.9701 39.1823C45.8841 39.1823 45.7981 39.1823 45.7095 39.1823C45.6165 39.1813 45.5235 39.1803 45.4277 39.1792C45.2851 39.1788 45.2851 39.1788 45.1395 39.1784C44.835 39.1773 44.5306 39.1748 44.2261 39.1724C44.02 39.1714 43.8138 39.1705 43.6077 39.1697C43.1017 39.1675 42.5958 39.1643 42.0898 39.1602C42.0919 39.2888 42.0939 39.4174 42.096 39.5499C42.1031 40.0266 42.1076 40.5032 42.1113 40.9799C42.1133 41.1863 42.1159 41.3927 42.1193 41.5991C42.124 41.8956 42.1263 42.192 42.128 42.4885C42.13 42.581 42.132 42.6734 42.1341 42.7687C42.1343 43.4061 42.1343 43.4061 41.9082 43.6652C41.6342 43.7764 41.488 43.7471 41.2109 43.6523C41.0156 43.457 41.0156 43.457 40.9921 43.2704C40.9928 43.1566 40.9928 43.1566 40.9935 43.0404C40.9935 42.9544 40.9935 42.8684 40.9935 42.7798C40.9945 42.6868 40.9955 42.5938 40.9966 42.498C40.9968 42.4029 40.9971 42.3078 40.9974 42.2098C40.9985 41.9053 41.0009 41.6009 41.0034 41.2964C41.0044 41.0903 41.0053 40.8841 41.0061 40.678C41.0082 40.1721 41.0115 39.6661 41.0156 39.1602C40.887 39.1617 40.7584 39.1632 40.6258 39.1648C40.1492 39.1701 39.6726 39.1735 39.1959 39.1762C38.9895 39.1777 38.7831 39.1797 38.5767 39.1823C38.2802 39.1858 37.9838 39.1875 37.6873 39.1888C37.5486 39.191 37.5486 39.191 37.4071 39.1933C37.2781 39.1934 37.2781 39.1934 37.1464 39.1934C37.0708 39.1941 36.9951 39.1947 36.9171 39.1954C36.6626 39.1502 36.5748 39.0764 36.4258 38.8672C36.4441 38.5132 36.4441 38.5132 36.5234 38.1836C36.751 38.0698 36.8821 38.0741 37.1354 38.0749C37.2644 38.0749 37.2644 38.0749 37.396 38.0749C37.489 38.0754 37.582 38.0759 37.6778 38.0764C37.8204 38.0766 37.8204 38.0766 37.9659 38.0768C38.2704 38.0774 38.5749 38.0786 38.8794 38.0798C39.0855 38.0803 39.2916 38.0808 39.4978 38.0812C40.0037 38.0822 40.5097 38.0839 41.0156 38.0859C41.0141 37.9573 41.0126 37.8287 41.011 37.6961C41.0057 37.2195 41.0023 36.7429 40.9995 36.2662C40.9981 36.0598 40.9961 35.8534 40.9935 35.647C40.99 35.3505 40.9883 35.0541 40.987 34.7576C40.9855 34.6651 40.984 34.5727 40.9824 34.4774C40.9824 34.3914 40.9824 34.3054 40.9824 34.2168C40.9817 34.1411 40.9811 34.0654 40.9804 33.9874C41.042 33.6404 41.2133 33.5104 41.5527 33.4595Z" fill="black"/>
<path d="M38.4276 4.63257C38.7694 4.6875 38.7694 4.6875 38.9769 4.88281C39.1217 5.3793 38.8556 5.79499 38.623 6.23221C38.4495 6.5394 38.2716 6.84361 38.0919 7.14722C38.0313 7.25139 37.9707 7.35556 37.9083 7.46288C37.3473 8.4182 37.3473 8.4182 37.0116 8.78906C36.6957 8.84065 36.5182 8.8398 36.2365 8.6853C36.0697 8.38117 36.1616 8.14514 36.2304 7.8125C36.3802 7.49009 36.3802 7.49009 36.5714 7.16133C36.6052 7.10253 36.6391 7.04373 36.674 6.98315C36.7814 6.79715 36.8904 6.6121 36.9994 6.427C37.0719 6.30174 37.1442 6.17643 37.2165 6.05106C37.9988 4.70148 37.9988 4.70148 38.4276 4.63257Z" fill="black"/>
<path d="M10.0463 4.65088C10.435 4.69752 10.4922 4.78041 10.7421 5.07812C10.9114 5.34817 11.0619 5.62717 11.2121 5.9082C11.5599 6.55679 11.5599 6.55679 11.9376 7.18803C12.4532 8.00488 12.4532 8.00488 12.4084 8.41675C12.3046 8.69141 12.3046 8.69141 12.1093 8.78906C11.8285 8.82568 11.8285 8.82568 11.5234 8.78906C11.2218 8.46055 11.0021 8.09716 10.781 7.71141C10.7171 7.60019 10.6531 7.48897 10.5872 7.37438C10.5545 7.31703 10.5218 7.25969 10.4882 7.2006C10.3881 7.02508 10.2874 6.8499 10.1867 6.67477C9.46783 5.42101 9.46783 5.42101 9.497 5.11475C9.60456 4.77413 9.69065 4.69727 10.0463 4.65088Z" fill="black"/>
<path d="M48.3399 14.2578C48.5353 14.4532 48.5353 14.4532 48.6024 14.7705C48.5353 15.1368 48.5353 15.1368 48.3798 15.2752C48.3101 15.3187 48.2404 15.3623 48.1687 15.4072C48.0889 15.4574 48.0091 15.5076 47.9268 15.5594C47.7929 15.6402 47.7929 15.6402 47.6563 15.7227C47.5606 15.781 47.4649 15.8393 47.3662 15.8994C47.054 16.0863 46.7392 16.2681 46.4234 16.449C46.3167 16.5124 46.2099 16.5758 46.1 16.6411C45.2235 17.1414 45.2235 17.1414 44.8037 17.0933C44.5313 16.9922 44.5313 16.9922 44.4337 16.7969C44.4039 16.5116 44.4039 16.5116 44.4337 16.211C44.5855 16.0385 44.5855 16.0385 44.8121 15.8936C44.8999 15.8372 44.9876 15.7808 45.078 15.7227C45.705 15.3541 46.3405 15.0016 46.9801 14.6554C47.1373 14.5679 47.2906 14.4734 47.4427 14.3772C47.7495 14.2058 47.9956 14.2254 48.3399 14.2578Z" fill="black"/>
<path d="M0.511871 14.2266C0.917061 14.261 1.12924 14.3552 1.47699 14.561C1.58626 14.6249 1.69553 14.6888 1.80811 14.7546C1.92153 14.8229 2.03496 14.8913 2.14838 14.9596C2.26172 15.0262 2.37515 15.0926 2.48865 15.1589C3.64669 15.8427 3.64669 15.8427 4.1015 16.2108C4.16678 16.5372 4.15717 16.6953 3.99774 16.986C3.69544 17.1518 3.45548 17.0585 3.12494 16.9921C2.83407 16.8633 2.83407 16.8633 2.54816 16.7007C2.44329 16.6415 2.33843 16.5823 2.23039 16.5214C2.12276 16.4592 2.01513 16.397 1.90424 16.3329C1.7966 16.2722 1.68897 16.2116 1.57808 16.1491C0.443542 15.5035 0.443542 15.5035 -6.10352e-05 15.1366C-0.0549927 14.7765 -0.0549927 14.7765 -6.10352e-05 14.453C0.195251 14.2577 0.195251 14.2577 0.511871 14.2266Z" fill="black"/>
<path d="M31.1522 38.2812C31.4356 38.4229 31.5189 38.509 31.6283 38.8061C31.6432 39.1182 31.6019 39.28 31.4452 39.5507C31.1617 39.787 31.0227 39.8463 30.6517 39.8315C30.2217 39.7006 30.2217 39.7006 30.078 39.4531C30.0043 38.7897 30.0043 38.7897 30.2306 38.4277C30.5589 38.2257 30.7733 38.2338 31.1522 38.2812Z" fill="black"/>
</g>
<defs>
<clipPath id="clip0_249_603">
<rect width="50" height="50" fill="white"/>
</clipPath>
</defs>
</svg>