<svg width="50" height="50" viewBox="0 0 50 50" fill="none" xmlns="http://www.w3.org/2000/svg">
<g clip-path="url(#clip0_249_588)">
<path d="M35.5469 0.390747C36.6791 1.14148 37.0307 2.40865 37.394 3.65041C37.438 3.79755 37.4822 3.94465 37.5264 4.09173C37.6205 4.40516 37.7137 4.71879 37.8064 5.03262C37.9539 5.53188 38.103 6.03063 38.2524 6.52931C38.4318 7.12839 38.6107 7.72759 38.7892 8.32694C39.0813 9.30794 39.376 10.2881 39.6733 11.2676C39.6935 11.3341 39.7137 11.4007 39.7345 11.4692C39.8348 11.8 39.9353 12.1306 40.0358 12.4613C40.2162 13.0552 40.3962 13.6492 40.5762 14.2432C40.6359 14.4405 40.6957 14.6378 40.7555 14.8351C41.015 15.6912 41.2743 16.5474 41.5334 17.4036C41.7147 18.003 41.8962 18.6024 42.0777 19.2018C42.0977 19.2678 42.1176 19.3338 42.1382 19.4017C42.7591 21.4522 43.3839 23.5016 44.0107 25.5502C44.7239 27.8813 45.4359 30.2127 46.1416 32.5461C46.2228 32.8146 46.3041 33.0831 46.3856 33.3516C46.4978 33.721 46.6094 34.0906 46.7209 34.4602C46.7537 34.5679 46.7864 34.6756 46.8202 34.7865C47.193 36.0261 47.4883 37.0785 46.9117 38.3119C46.2895 39.4451 45.4367 39.8686 44.2364 40.2299C44.1535 40.2555 44.0706 40.281 43.9852 40.3073C43.7178 40.3895 43.4501 40.4707 43.1824 40.5519C42.9982 40.6082 42.8141 40.6647 42.6299 40.7211C41.2156 41.1539 39.7989 41.5785 38.3789 41.9923C38.377 42.0613 38.3751 42.1302 38.3731 42.2013C38.3638 42.5141 38.3531 42.8269 38.3423 43.1398C38.3393 43.2483 38.3363 43.3568 38.3332 43.4686C38.3294 43.5731 38.3256 43.6776 38.3217 43.7852C38.3187 43.8814 38.3156 43.9775 38.3124 44.0766C38.2808 44.3399 38.2256 44.503 38.086 44.7267C37.8227 44.9314 37.6863 44.9215 37.3475 44.9037C37.0084 44.8235 36.9185 44.8002 36.7188 44.5314C36.6855 44.3099 36.6855 44.3099 36.6902 44.0542C36.6909 43.9716 36.6916 43.8891 36.6924 43.804C36.6951 43.6996 36.6977 43.5952 36.7005 43.4877C36.7038 43.308 36.7071 43.1284 36.7103 42.9487C36.7131 42.7927 36.716 42.6366 36.7188 42.4806C36.6499 42.502 36.581 42.5235 36.5101 42.5456C34.6338 43.1295 32.7558 43.7076 30.8765 44.2815C30.654 44.3495 30.4316 44.4174 30.2092 44.4854C27.7497 45.2368 25.2888 45.9839 22.8272 46.7286C22.7482 46.7525 22.6693 46.7764 22.588 46.801C22.0589 46.9611 21.5298 47.1211 21.0007 47.281C20.9347 47.301 20.8686 47.3209 20.8006 47.3415C19.6944 47.6759 18.5875 48.0082 17.4805 48.34C19.8115 48.3491 22.1426 48.356 24.4736 48.3602C25.5559 48.3622 26.6383 48.365 27.7206 48.3694C28.664 48.3733 29.6074 48.3758 30.5508 48.3767C31.0503 48.3772 31.5497 48.3784 32.0492 48.3813C32.5195 48.3839 32.9898 48.3847 33.46 48.3841C33.6325 48.3843 33.805 48.385 33.9774 48.3865C34.2133 48.3885 34.449 48.388 34.6849 48.3869C34.7528 48.3881 34.8207 48.3892 34.8907 48.3904C35.4162 48.384 35.7085 48.2372 36.1329 47.9493C36.4625 47.5555 36.6016 47.1641 36.7279 46.6752C36.8164 46.4845 36.8164 46.4845 36.9992 46.3598C37.32 46.2508 37.5657 46.31 37.8907 46.3868C38.0935 46.5407 38.172 46.6321 38.2328 46.8808C38.2537 47.7288 37.9466 48.4202 37.3974 49.0625C36.5367 49.885 35.6358 50.0585 34.4747 50.0497C34.3501 50.0503 34.2255 50.0509 34.0972 50.0516C33.7539 50.0532 33.4106 50.0524 33.0673 50.0512C32.6961 50.0503 32.3249 50.0517 31.9537 50.0527C31.2275 50.0545 30.5013 50.0541 29.7751 50.053C29.1847 50.0521 28.5943 50.052 28.0039 50.0524C27.8777 50.0525 27.8777 50.0525 27.7489 50.0526C27.578 50.0527 27.407 50.0528 27.236 50.053C25.6343 50.0541 24.0326 50.0528 22.4309 50.0507C21.0576 50.0489 19.6844 50.0492 18.3112 50.051C16.715 50.0531 15.1189 50.054 13.5227 50.0528C13.3524 50.0526 13.1821 50.0525 13.0118 50.0524C12.928 50.0523 12.8442 50.0523 12.7579 50.0522C12.1684 50.0519 11.579 50.0524 10.9896 50.0534C10.2709 50.0545 9.55221 50.0542 8.83352 50.0521C8.4671 50.0511 8.1007 50.0506 7.73428 50.0519C7.33651 50.0533 6.93882 50.0517 6.54105 50.0497C6.42601 50.0506 6.31097 50.0515 6.19244 50.0524C5.16461 50.0426 4.36934 49.7764 3.6179 49.0636C2.93381 48.2581 2.72228 47.3861 2.72212 46.3495C2.72174 46.1671 2.72174 46.1671 2.72135 45.981C2.72156 45.8473 2.72178 45.7136 2.72201 45.5799C2.7219 45.4369 2.72174 45.2939 2.72155 45.1509C2.72114 44.7587 2.72134 44.3665 2.72165 43.9743C2.72187 43.551 2.72153 43.1276 2.72126 42.7043C2.72082 41.8751 2.72092 41.0459 2.7212 40.2168C2.72142 39.5425 2.72145 38.8682 2.72135 38.1939C2.72133 38.0979 2.72132 38.0019 2.7213 37.903C2.72127 37.708 2.72124 37.5129 2.72121 37.3179C2.72093 35.4886 2.72125 33.6593 2.72177 31.83C2.72221 30.2621 2.72213 28.6942 2.72168 27.1262C2.72116 25.3045 2.72095 23.4828 2.72125 21.6611C2.72128 21.4666 2.72131 21.272 2.72135 21.0775C2.72136 20.9818 2.72137 20.8861 2.72139 20.7875C2.72147 20.1148 2.72133 19.442 2.7211 18.7693C2.72083 17.9483 2.7209 17.1273 2.72142 16.3064C2.72168 15.8879 2.72178 15.4694 2.72146 15.0509C2.72117 14.667 2.72133 14.2831 2.72185 13.8992C2.72195 13.7611 2.7219 13.623 2.72166 13.4849C2.71658 10.2983 2.71657 10.2983 3.78193 9.17752C4.35526 8.67906 5.02786 8.4504 5.76176 8.3009C5.75836 8.22172 5.75496 8.14254 5.75146 8.06096C5.71632 6.62384 6.10158 5.36751 7.10033 4.30691C8.14415 3.35024 9.43748 2.8917 10.8403 2.90883C12.223 3.00798 13.3073 3.60576 14.2579 4.58997C14.7461 5.17042 14.7461 5.17042 14.7461 5.46887C16.3947 5.01795 18.0314 4.53433 19.6643 4.02969C20.0539 3.90932 20.4437 3.78968 20.8335 3.67015C21.9577 3.32531 23.0818 2.97999 24.2048 2.63113C24.7451 2.46334 25.2858 2.29692 25.8267 2.13096C26.0514 2.06174 26.2759 1.99201 26.5003 1.92175C26.8104 1.82467 27.1211 1.72931 27.4319 1.63434C27.5224 1.60555 27.6128 1.57676 27.706 1.54709C28.2171 1.39321 28.5802 1.33486 29.1016 1.46497C29.3602 1.62872 29.3902 1.74342 29.48 2.0387C29.4956 2.4291 29.4533 2.53333 29.1993 2.83215C28.8721 2.9942 28.5291 3.09561 28.1804 3.20142C28.0762 3.23451 27.972 3.26761 27.8647 3.30171C27.5289 3.40766 27.1923 3.51079 26.8555 3.6134C26.7487 3.64634 26.6419 3.67927 26.5318 3.71321C25.7275 3.96109 24.9214 4.20262 24.115 4.44348C23.6475 4.58349 23.18 4.72381 22.7126 4.86417C22.5713 4.90659 22.43 4.94899 22.2887 4.99138C21.1476 5.3338 20.0079 5.6803 18.8686 6.02868C18.6012 6.11045 18.3337 6.19214 18.0662 6.27381C17.8893 6.32784 17.7124 6.38187 17.5355 6.4359C17.4484 6.4625 17.3612 6.4891 17.2715 6.5165C16.8355 6.64966 16.3997 6.78304 15.9639 6.91684C15.5523 7.04323 15.1405 7.16912 14.7286 7.29466C14.576 7.34126 14.4235 7.38805 14.2711 7.43505C14.0619 7.49951 13.8526 7.56329 13.6432 7.62692C13.5256 7.66296 13.408 7.699 13.2868 7.73613C12.9883 7.81262 12.9883 7.81262 12.5977 7.81262C12.5986 7.92668 12.5994 8.04074 12.6003 8.15825C12.6083 9.23579 12.6141 10.3133 12.6179 11.3909C12.62 11.9448 12.6227 12.4987 12.6272 13.0526C12.6314 13.5876 12.6337 14.1227 12.6348 14.6577C12.6355 14.8614 12.6369 15.065 12.639 15.2686C12.6419 15.5549 12.6422 15.8411 12.642 16.1275C12.6434 16.2107 12.6448 16.2939 12.6463 16.3797C12.64 17.3155 12.273 18.1742 11.6211 18.8478C10.7722 19.5542 9.93352 19.7901 8.83717 19.7595C8.03324 19.6822 7.49289 19.4302 6.90159 18.881C6.81558 18.8017 6.72957 18.7223 6.64095 18.6406C6.5764 18.5801 6.51185 18.5195 6.44535 18.4572C7.00109 20.3171 7.55994 22.1761 8.12305 24.0339C8.1449 24.1059 8.16675 24.178 8.18926 24.2523C8.41043 24.9819 8.63171 25.7114 8.85316 26.4409C8.93726 26.718 9.02132 26.995 9.10538 27.2721C9.16367 27.4642 9.22202 27.6563 9.28038 27.8484C9.82698 29.6502 9.82698 29.6502 9.76566 30.2736C9.61918 30.5177 9.61918 30.5177 9.37504 30.6642C9.09096 30.7139 8.88859 30.6969 8.59379 30.6642C6.92567 29.3867 6.21855 23.6029 5.57977 21.4817C5.45645 21.0722 5.33309 20.6628 5.20973 20.2533C4.97052 19.4593 4.73136 18.6653 4.49223 17.8712C4.48329 21.6043 4.4764 25.3373 4.47228 29.0704C4.47179 29.511 4.47128 29.9517 4.47077 30.3924C4.47067 30.4801 4.47056 30.5678 4.47046 30.6582C4.46876 32.0789 4.46568 33.4996 4.46209 34.9204C4.45843 36.378 4.45627 37.8357 4.45547 39.2933C4.45494 40.1929 4.45324 41.0924 4.45007 41.992C4.44801 42.6087 4.44738 43.2254 4.44789 43.8422C4.44814 44.1981 4.44775 44.5539 4.44566 44.9098C4.44341 45.2958 4.44418 45.6817 4.44525 46.0676C4.44411 46.18 4.44298 46.2924 4.4418 46.4082C4.44655 47.0412 4.49859 47.4378 4.88285 47.9493C5.41959 48.3606 5.85142 48.3951 6.51361 48.3843C6.65235 48.3844 6.65235 48.3844 6.79389 48.3845C7.09774 48.3842 7.40151 48.3812 7.70535 48.3781C7.91675 48.3774 8.12815 48.3768 8.33955 48.3764C8.89457 48.375 9.44955 48.3711 10.0045 48.3668C10.5714 48.3628 11.1383 48.361 11.7052 48.359C12.8165 48.3549 13.9278 48.3482 15.0391 48.34C14.9724 48.3012 14.9056 48.2625 14.8369 48.2225C14.7053 48.1451 14.7053 48.1451 14.571 48.0661C14.4842 48.0152 14.3973 47.9644 14.3078 47.912C13.128 47.1519 12.8614 45.5431 12.4829 44.2785C12.4353 44.1211 12.3876 43.9638 12.3399 43.8065C12.2132 43.388 12.0872 42.9692 11.9614 42.5504C11.831 42.1163 11.6999 41.6824 11.5689 41.2485C11.411 40.7254 11.2531 40.2022 11.0956 39.679C10.7998 38.6963 10.5019 37.7143 10.2009 36.7332C10.0729 36.3158 9.9455 35.8982 9.81799 35.4807C9.75093 35.2617 9.68362 35.0427 9.61604 34.8238C9.52378 34.5248 9.43251 34.2255 9.34147 33.9261C9.31473 33.8404 9.288 33.7547 9.26045 33.6664C8.96612 32.6901 8.96612 32.6901 9.17973 32.1962C9.42966 31.9853 9.63134 31.9489 9.94801 31.8937C10.2863 31.9587 10.4236 32.1658 10.6446 32.422C10.749 32.6662 10.8291 32.8873 10.9013 33.1403C10.9345 33.2495 10.9345 33.2495 10.9685 33.3609C11.043 33.607 11.1154 33.8537 11.1878 34.1005C11.2412 34.2782 11.2948 34.4558 11.3485 34.6334C11.4694 35.0341 11.5893 35.435 11.7087 35.8361C11.9369 36.6013 12.1685 37.3655 12.4005 38.1295C12.4863 38.4123 12.5721 38.6951 12.6579 38.9779C12.6793 39.0483 12.7007 39.1187 12.7227 39.1912C12.8889 39.739 13.0546 40.287 13.22 40.8351C13.3766 41.3538 13.534 41.8722 13.6918 42.3905C13.8116 42.7847 13.9303 43.1792 14.0483 43.5739C14.1267 43.8354 14.2059 44.0967 14.2853 44.358C14.3401 44.5393 14.394 44.7209 14.4478 44.9024C14.6612 45.6014 14.8343 46.1382 15.4114 46.6127C15.9612 46.9037 16.4228 46.9082 17.01 46.7304C17.1259 46.696 17.2418 46.6616 17.3612 46.6262C17.4875 46.5873 17.6137 46.5483 17.7399 46.5093C17.8741 46.4689 18.0084 46.4287 18.1427 46.3885C18.5008 46.2811 18.8584 46.1721 19.2159 46.0626C19.5702 45.9545 19.925 45.848 20.2797 45.7413C21.1056 45.4926 21.9307 45.2414 22.7556 44.9898C23.1742 44.8622 23.5928 44.7349 24.0115 44.6075C24.6228 44.4214 25.2342 44.2353 25.8455 44.0492C27.3273 43.5979 28.8095 43.1476 30.2917 42.6975C30.8468 42.5289 31.4018 42.3603 31.9569 42.1916C33.4553 41.7363 34.9538 41.2812 36.4525 40.8267C37.0695 40.6396 37.6864 40.4524 38.3034 40.2652C38.7225 40.1381 39.1416 40.011 39.5607 39.884C40.3761 39.637 41.1913 39.3893 42.0059 39.1396C42.4209 39.0125 42.8365 38.8878 43.2526 38.764C43.4468 38.705 43.6409 38.646 43.8351 38.5869C43.9193 38.5625 44.0034 38.5381 44.0901 38.5129C44.6646 38.3355 45.1157 38.1063 45.4468 37.5795C45.6453 36.6864 45.4192 35.903 45.1493 35.0496C45.1108 34.9243 45.0724 34.7991 45.0341 34.6738C44.9519 34.4054 44.8688 34.1373 44.7851 33.8694C44.6505 33.4389 44.5179 33.0079 44.3855 32.5768C44.2237 32.0504 44.0616 31.5242 43.8989 30.9982C43.6204 30.098 43.3452 29.1968 43.0725 28.2949C43.0532 28.2308 43.0338 28.1668 43.0139 28.1008C42.9356 27.842 42.8574 27.5832 42.7793 27.3244C42.5586 26.5939 42.3372 25.8636 42.1158 25.1333C42.0953 25.0656 42.0748 24.9979 42.0536 24.9281C41.5132 23.1452 40.9714 21.3627 40.4297 19.5802C39.7648 17.392 39.1 15.2037 38.4369 13.0149C38.3179 12.6221 38.1988 12.2294 38.0797 11.8366C37.6843 10.533 37.2899 9.22904 36.8977 7.92441C36.7392 7.39716 36.5804 6.87002 36.4215 6.3429C36.2918 5.91288 36.1627 5.48272 36.0339 5.05246C35.9546 4.78782 35.8748 4.52331 35.7949 4.25884C35.7405 4.07824 35.6866 3.89748 35.6327 3.71671C35.3768 2.87208 35.1919 2.29355 34.4727 1.75793C33.8942 1.46871 33.1932 1.67713 32.6111 1.85559C32.0607 2.02409 31.6281 2.1167 31.0547 2.0509C30.8405 1.89523 30.7713 1.80941 30.7228 1.54736C30.7236 1.47183 30.7244 1.3963 30.7251 1.31848C30.7244 1.24295 30.7236 1.16742 30.7228 1.0896C30.7716 0.825865 30.8529 0.75842 31.0547 0.586059C32.3739 -0.0618021 34.2305 -0.417866 35.5469 0.390747ZM8.21232 5.53067C7.49844 6.33778 7.29478 7.10262 7.29589 8.16145C7.29523 8.25269 7.29457 8.34393 7.2939 8.43793C7.29205 8.738 7.29166 9.03804 7.29145 9.33812C7.29082 9.54765 7.29017 9.75718 7.28948 9.96671C7.28831 10.4053 7.28795 10.8439 7.28807 11.2825C7.28808 11.8435 7.28542 12.4044 7.28205 12.9654C7.27988 13.3979 7.27949 13.8304 7.27959 14.263C7.27936 14.4698 7.2785 14.6766 7.27699 14.8833C7.27507 15.1729 7.27564 15.4624 7.27681 15.7519C7.27571 15.8366 7.27462 15.9213 7.27349 16.0086C7.2799 16.6333 7.41977 17.1612 7.85277 17.6298C8.31817 18.0407 8.73981 18.2143 9.36398 18.1943C10.0059 18.1006 10.4278 17.7432 10.8273 17.2544C11.1026 16.8437 11.0503 16.3904 11.0509 15.9168C11.0514 15.8267 11.0519 15.7366 11.0524 15.6438C11.0538 15.3457 11.0545 15.0475 11.055 14.7493C11.0556 14.5424 11.0562 14.3355 11.0567 14.1286C11.0577 13.6948 11.0583 13.2611 11.0587 12.8273C11.0592 12.2706 11.0615 11.714 11.0643 11.1574C11.0661 10.7301 11.0666 10.3029 11.0668 9.87562C11.0671 9.67035 11.0679 9.46507 11.0692 9.2598C11.0708 8.97315 11.0706 8.68655 11.07 8.39989C11.0709 8.31466 11.0718 8.22942 11.0727 8.1416C11.0822 7.71789 11.0822 7.71789 10.9052 7.34831C10.7361 7.19546 10.7361 7.19546 10.4432 7.23889C10.1277 7.29958 10.1277 7.29958 9.96098 7.61731C9.9412 7.86931 9.9326 8.111 9.93294 8.36308C9.93194 8.47674 9.93194 8.47674 9.93092 8.59269C9.92959 8.75718 9.92871 8.92168 9.92821 9.08617C9.9274 9.34637 9.9254 9.60653 9.92308 9.86672C9.91837 10.419 9.91515 10.9713 9.91215 11.5236C9.90867 12.1635 9.90458 12.8034 9.89887 13.4432C9.89691 13.6998 9.8961 13.9564 9.89533 14.213C9.89406 14.37 9.89274 14.527 9.89136 14.684C9.89145 14.7556 9.89155 14.8271 9.89165 14.9008C9.88722 15.2611 9.87341 15.4147 9.66801 15.7228C9.28518 15.8079 8.96779 15.8574 8.59379 15.7228C8.47233 15.346 8.48029 14.9687 8.47885 14.5772C8.47821 14.5015 8.47756 14.4259 8.4769 14.348C8.47498 14.098 8.47384 13.848 8.47286 13.598C8.47246 13.5123 8.47207 13.4266 8.47166 13.3383C8.46962 12.8845 8.46822 12.4306 8.46731 11.9767C8.46623 11.5098 8.46287 11.0429 8.45899 10.576C8.45643 10.2154 8.45562 9.85485 8.45527 9.49424C8.45479 9.32224 8.45367 9.15023 8.45185 8.97824C8.43148 6.92532 8.43148 6.92532 9.11259 6.2074C9.76494 5.82812 10.2744 5.65145 11.0352 5.76184C11.417 5.89714 11.725 6.06098 12.0118 6.34778C12.242 6.33555 12.242 6.33555 12.4939 6.27454C12.6221 6.2481 12.6221 6.2481 12.753 6.22113C13.0107 6.1587 13.0107 6.1587 13.2813 5.95715C12.6996 5.19174 12.0094 4.7002 11.055 4.51443C9.93916 4.39968 9.00552 4.7452 8.21232 5.53067ZM4.88285 10.3517C4.532 10.7142 4.36659 11.0793 4.36501 11.5845C4.37686 12.1292 4.50717 12.6073 4.67228 13.1234C4.70046 13.2153 4.72864 13.3071 4.75767 13.4017C4.84695 13.6916 4.9381 13.9809 5.02934 14.2701C5.09062 14.468 5.15179 14.6658 5.21282 14.8637C5.36182 15.3458 5.51249 15.8274 5.6641 16.3087C5.69633 16.3087 5.72855 16.3087 5.76176 16.3087C5.76176 14.214 5.76176 12.1193 5.76176 9.96106C5.4521 9.96106 5.13092 10.1866 4.88285 10.3517Z" fill="black"/>
<path d="M20.8009 11.1327C21.0165 11.3132 21.1308 11.4787 21.2892 11.7187C21.2892 11.8154 21.2892 11.912 21.2892 12.0116C21.3506 12.0023 21.412 11.993 21.4753 11.9834C22.1536 11.8956 22.6913 11.887 23.2911 12.2619C23.5095 12.6167 23.5304 12.9741 23.4376 13.3788C23.2965 13.647 23.2965 13.647 23.047 13.8671C22.7421 13.9338 22.4427 13.931 22.1315 13.9282C21.5375 13.9282 21.1329 13.9492 20.6056 14.2577C20.5411 14.2577 20.4767 14.2577 20.4103 14.2577C20.3039 14.7378 20.3039 14.7378 20.4252 15.2015C20.5856 15.4457 20.5856 15.4457 20.8391 15.5132C20.9312 15.5239 21.0233 15.5346 21.1183 15.5456C21.2221 15.5593 21.326 15.573 21.433 15.5872C21.6035 15.6059 21.6035 15.6059 21.7775 15.6249C23.8837 15.8561 23.8837 15.8561 24.6095 16.6015C25.2961 17.5816 25.4776 18.4372 25.3907 19.6288C25.2635 20.2959 24.8591 20.8016 24.3463 21.2329C24.199 21.3796 24.199 21.3796 24.2074 21.5904C24.2152 21.6641 24.223 21.7379 24.2311 21.8139C24.2409 22.1676 24.2284 22.2506 24.0297 22.5646C23.6813 22.785 23.4682 22.8249 23.0623 22.8019C22.7185 22.7234 22.5658 22.5439 22.3634 22.2656C22.3024 22.0535 22.3024 22.0535 22.2657 21.8749C22.1429 21.883 22.02 21.891 21.8934 21.8993C21.1918 21.8982 20.5643 21.6756 20.0074 21.2524C19.7903 20.9484 19.7267 20.784 19.7267 20.4101C19.8683 19.9853 19.9365 19.7819 20.3126 19.5312C20.7172 19.4734 20.9651 19.5537 21.3197 19.7326C21.7945 19.958 22.1524 19.9568 22.6564 19.8241C22.9692 19.7047 23.1702 19.6189 23.3827 19.3603C23.4885 18.9372 23.3918 18.5736 23.2179 18.1823C22.9683 17.8704 22.6924 17.795 22.3036 17.732C22.2142 17.7239 22.1248 17.7158 22.0327 17.7074C21.9329 17.697 21.8331 17.6866 21.7304 17.6759C21.5237 17.6556 21.3169 17.6363 21.1101 17.6179C20.2746 17.5283 19.5806 17.312 18.9576 16.7297C18.4055 15.869 18.2386 15.087 18.3595 14.0624C18.5154 13.5295 18.8136 13.1507 19.2384 12.7929C19.3029 12.7929 19.3673 12.7929 19.4337 12.7929C19.4176 12.7425 19.4015 12.6922 19.3849 12.6403C19.2969 12.2115 19.2801 11.8512 19.452 11.444C19.8321 10.9853 20.2466 10.9744 20.8009 11.1327Z" fill="black"/>
<path d="M39.8438 33.3984C40.1371 33.5991 40.2181 33.7379 40.3259 34.0759C40.3335 34.448 40.2684 34.5719 40.0391 34.8633C39.8014 34.9756 39.5939 35.0529 39.344 35.1257C39.2304 35.1612 39.2304 35.1612 39.1146 35.1974C38.8373 35.2833 38.5593 35.3662 38.2813 35.4492C38.0482 35.5202 37.8153 35.5913 37.5823 35.6625C36.8145 35.8964 36.0456 36.1266 35.2767 36.3568C34.5591 36.5717 33.8419 36.7876 33.1245 37.0033C33.043 37.0278 32.9615 37.0524 32.8775 37.0776C31.2357 37.5714 29.5959 38.0713 27.9566 38.5732C27.5169 38.7079 27.077 38.8422 26.6372 38.9765C26.3502 39.0642 26.0633 39.1518 25.7763 39.2395C25.7064 39.2608 25.6365 39.2822 25.5645 39.3042C24.753 39.5522 23.9418 39.8011 23.1311 40.0519C22.5831 40.2214 22.0347 40.3898 21.4862 40.5578C21.2643 40.6261 21.0424 40.6948 20.8207 40.7639C20.5195 40.8578 20.2179 40.9503 19.9162 41.0423C19.8298 41.0697 19.7435 41.097 19.6546 41.1252C19.1314 41.2827 18.614 41.3954 18.0664 41.3086C17.8101 41.1072 17.8101 41.1072 17.6758 40.8203C17.6815 40.4899 17.6873 40.2501 17.8913 39.9815C18.121 39.8008 18.3361 39.7372 18.616 39.6531C18.7284 39.6189 18.8407 39.5846 18.9565 39.5493C19.0783 39.5132 19.2001 39.477 19.3256 39.4398C19.4538 39.401 19.5819 39.3622 19.71 39.3232C19.9755 39.2426 20.2411 39.1625 20.5068 39.0828C20.9831 38.9396 21.4584 38.7931 21.9336 38.6464C22.5222 38.4649 23.1111 38.2847 23.7 38.1042C23.8291 38.0647 23.9582 38.0251 24.0873 37.9855C25.5831 37.5271 27.0794 37.0703 28.5767 36.6165C28.6435 36.5963 28.7103 36.576 28.7792 36.5551C29.4514 36.3514 30.1236 36.148 30.7959 35.9449C31.1294 35.8442 31.4628 35.7434 31.7963 35.6426C31.862 35.6227 31.9278 35.6029 31.9955 35.5824C32.95 35.2937 33.9032 35.0012 34.8557 34.7061C35.2578 34.5817 35.66 34.4577 36.0621 34.3337C36.38 34.2356 36.6977 34.1372 37.0152 34.0378C37.3631 33.9292 37.7113 33.8216 38.0596 33.7143C38.1616 33.682 38.2637 33.6498 38.3688 33.6166C38.8765 33.4614 39.312 33.3436 39.8438 33.3984Z" fill="black"/>
<path d="M38.922 29.5472C39.1174 29.8785 39.1164 30.0906 39.0624 30.4688C38.7295 30.951 38.1854 31.046 37.6521 31.2058C37.5455 31.2388 37.4389 31.2718 37.3291 31.3058C37.0282 31.3986 36.727 31.4903 36.4256 31.5815C36.1575 31.6628 35.8896 31.745 35.6218 31.8272C34.7058 32.1083 33.7889 32.3863 32.8719 32.664C32.4475 32.7925 32.0232 32.9212 31.599 33.05C30.6526 33.337 29.7062 33.6237 28.7598 33.9104C28.3734 34.0275 27.987 34.1446 27.6007 34.2616C27.4917 34.2947 27.4917 34.2947 27.3806 34.3283C27.0251 34.4361 26.6696 34.5438 26.3142 34.6515C25.708 34.8353 25.1017 35.0189 24.4954 35.2023C24.1736 35.2996 23.8518 35.3969 23.5301 35.4943C23.4681 35.513 23.4061 35.5318 23.3423 35.5511C22.4582 35.8188 21.5752 36.0897 20.6927 36.3625C20.3792 36.4591 20.0656 36.5557 19.7521 36.6523C19.4673 36.7403 19.1828 36.8292 18.8983 36.9182C18.7293 36.9703 18.5603 37.0223 18.3913 37.0743C18.2792 37.1099 18.2792 37.1099 18.1648 37.1461C17.6388 37.3065 17.2124 37.4197 16.7113 37.1582C16.4591 36.8615 16.4492 36.705 16.4485 36.3282C16.5289 36.0442 16.67 35.9328 16.8944 35.7422C17.1909 35.6194 17.1909 35.6194 17.5447 35.5137C17.6098 35.4939 17.6749 35.4741 17.7419 35.4537C17.9588 35.3879 18.1762 35.324 18.3936 35.26C18.5483 35.2135 18.7029 35.1669 18.8576 35.1202C19.1889 35.0204 19.5204 34.9213 19.8521 34.8229C20.3786 34.6666 20.9047 34.5087 21.4306 34.3505C22.1478 34.1349 22.8652 33.9201 23.5827 33.7057C24.8265 33.334 26.0688 32.9575 27.3109 32.5802C27.7631 32.4429 28.2154 32.3061 28.6677 32.1695C30.008 31.7645 31.3469 31.3558 32.6843 30.9417C33.1524 30.7969 33.6207 30.6527 34.089 30.5085C34.5376 30.3704 34.9858 30.2311 35.4338 30.091C35.7105 30.0048 35.9874 29.9196 36.2645 29.8347C36.4534 29.7764 36.6419 29.7169 36.8304 29.6574C38.3455 29.1956 38.3455 29.1956 38.922 29.5472Z" fill="black"/>
<path d="M36.2304 21.289C36.5328 21.5397 36.6069 21.6907 36.6699 22.0763C36.6081 22.4396 36.5136 22.5218 36.2304 22.7538C35.9952 22.8543 35.7737 22.9351 35.5304 23.0098C35.4176 23.0459 35.4176 23.0459 35.3025 23.0827C35.0264 23.1702 34.7496 23.2551 34.4726 23.3397C34.361 23.374 34.2493 23.4082 34.1343 23.4434C33.2406 23.7165 32.3457 23.9851 31.4506 24.2532C30.8137 24.444 30.1771 24.6355 29.5405 24.827C29.3766 24.8763 29.2128 24.9255 29.049 24.9748C27.4617 25.4519 25.8757 25.9332 24.2902 26.4163C23.9418 26.5225 23.5935 26.6285 23.2451 26.7344C21.9591 27.1255 20.6735 27.5174 19.3892 27.9139C18.8777 28.0718 18.3659 28.2289 17.8541 28.386C17.6158 28.4593 17.3775 28.533 17.1394 28.6071C16.8141 28.7083 16.4885 28.8083 16.1628 28.9081C16.0682 28.9378 15.9735 28.9676 15.8759 28.9983C15.3849 29.1474 14.9668 29.2492 14.4531 29.1991C14.1908 29.0127 14.0885 28.8744 13.9709 28.5766C13.962 28.2001 14.038 28.0443 14.2578 27.7343C14.5935 27.5608 14.9482 27.4656 15.311 27.3635C15.4192 27.331 15.5274 27.2985 15.6389 27.265C15.8719 27.1953 16.1052 27.1264 16.3388 27.0584C16.6934 26.9547 17.0467 26.8476 17.3999 26.7392C18.0889 26.5277 18.7787 26.3191 19.4687 26.1109C19.8185 26.0054 20.1682 25.8996 20.5179 25.7938C21.1024 25.617 21.6868 25.4404 22.2713 25.2638C23.4503 24.9076 24.6291 24.5506 25.8079 24.1934C26.2081 24.0722 26.6083 23.9511 27.0086 23.8302C28.3537 23.4238 29.6978 23.0145 31.0395 22.5971C31.4404 22.4725 31.8416 22.3484 32.2427 22.2244C32.5594 22.1264 32.8758 22.0279 33.192 21.9283C33.5383 21.8194 33.885 21.712 34.2319 21.6048C34.3329 21.5726 34.4339 21.5403 34.538 21.5071C35.1236 21.3281 35.6174 21.2369 36.2304 21.289Z" fill="black"/>
<path d="M37.5793 25.4578C37.8221 25.7144 37.8906 25.8201 37.8906 26.1719C37.7526 26.5673 37.6678 26.723 37.2875 26.9119C37.1536 26.9542 37.0188 26.9939 36.8835 27.0317C36.8073 27.0551 36.7311 27.0784 36.6525 27.1025C36.479 27.1554 36.3051 27.2072 36.131 27.2582C35.8183 27.3501 35.5069 27.4455 35.1955 27.5415C34.5036 27.7543 33.8106 27.9636 33.1175 28.1724C32.7626 28.2794 32.4078 28.3866 32.053 28.4939C31.5351 28.6504 31.0172 28.8069 30.4993 28.9632C29.4542 29.2787 28.4094 29.5951 27.3648 29.9118C27.2318 29.9522 27.0989 29.9925 26.9659 30.0328C26.9003 30.0527 26.8346 30.0726 26.767 30.0931C26.3046 30.2333 25.8421 30.3732 25.3796 30.513C25.1138 30.5933 24.848 30.6737 24.5823 30.7541C24.4836 30.784 24.4836 30.784 24.3828 30.8145C23.4537 31.0957 22.5255 31.38 21.598 31.6664C21.0748 31.8279 20.5513 31.9886 20.0278 32.1491C19.6011 32.28 19.1748 32.412 18.7486 32.5448C18.4855 32.6265 18.222 32.7072 17.9585 32.7876C17.7793 32.8427 17.6004 32.8989 17.4216 32.9552C16.8013 33.1433 16.2741 33.2643 15.625 33.2031C15.3226 32.9524 15.2485 32.8014 15.1855 32.4158C15.2467 32.0567 15.3489 31.9698 15.625 31.7383C15.8771 31.6293 15.8771 31.6293 16.167 31.5433C16.2765 31.5101 16.386 31.4769 16.4987 31.4428C16.6179 31.408 16.7371 31.3732 16.8598 31.3374C16.9866 31.2994 17.1134 31.2612 17.2401 31.223C17.5086 31.1421 17.7772 31.0618 18.046 30.982C18.4462 30.863 18.8455 30.7412 19.2445 30.6185C19.3099 30.5984 19.3752 30.5783 19.4426 30.5575C19.5759 30.5165 19.7092 30.4755 19.8426 30.4345C20.1878 30.3284 20.5332 30.2229 20.8786 30.1175C20.9489 30.096 21.0192 30.0745 21.0917 30.0524C21.2362 30.0082 21.3807 29.9641 21.5253 29.92C21.7512 29.851 21.9772 29.7819 22.2032 29.7129C23.872 29.2031 25.5411 28.6943 27.211 28.1883C27.2799 28.1675 27.3489 28.1466 27.4199 28.125C28.097 27.9199 28.7741 27.715 29.4513 27.5104C29.7776 27.4118 30.1039 27.3132 30.4302 27.2145C30.4935 27.1953 30.5568 27.1762 30.6221 27.1564C31.5421 26.878 32.4609 26.5954 33.379 26.3104C33.6041 26.2407 33.8291 26.171 34.0542 26.1013C34.4678 25.9732 34.8811 25.8441 35.2941 25.7143C35.4765 25.6578 35.6589 25.6012 35.8414 25.5448C35.9225 25.5189 36.0037 25.4931 36.0873 25.4665C37.0837 25.1604 37.0837 25.1604 37.5793 25.4578Z" fill="black"/>
</g>
<defs>
<clipPath id="clip0_249_588">
<rect width="50" height="50" fill="white"/>
</clipPath>
</defs>
</svg>