<svg width="50" height="50" viewBox="0 0 50 50" fill="none" xmlns="http://www.w3.org/2000/svg">
<g clip-path="url(#clip0_249_599)">
<path d="M40.4296 6.05461C41.2074 6.74522 41.6561 7.57642 41.718 8.61732C41.725 8.93235 41.7306 9.24732 41.7333 9.56241C41.7349 9.69785 41.7376 9.83328 41.7413 9.96868C41.7467 10.1654 41.7485 10.3622 41.7503 10.559C41.7522 10.6761 41.7541 10.7931 41.7561 10.9138C41.6827 11.3218 41.5311 11.4642 41.2109 11.7187C40.9179 11.7797 40.9179 11.7797 40.6249 11.7187C40.3139 11.4689 40.1547 11.3246 40.0784 10.9274C40.0794 10.8163 40.0803 10.7051 40.0813 10.5907C40.0803 10.468 40.0792 10.3453 40.0781 10.2189C40.0793 10.0915 40.0805 9.96401 40.0817 9.83268C40.1064 8.49449 40.1064 8.49449 39.4286 7.38517C38.6075 6.89994 37.5642 6.92987 36.6447 7.07313C36.0913 7.22507 35.7556 7.52619 35.4491 8.00773C35.32 8.3951 35.3365 8.76619 35.336 9.1701C35.3353 9.30507 35.3353 9.30507 35.3346 9.44276C35.3331 9.7455 35.3322 10.0482 35.3314 10.351C35.3305 10.5675 35.3295 10.784 35.3285 11.0005C35.3259 11.5895 35.3238 12.1784 35.3219 12.7673C35.3197 13.3824 35.3171 13.9974 35.3144 14.6125C35.3101 15.6452 35.3061 16.6778 35.3024 17.7105C35.2985 18.7743 35.2945 19.838 35.2902 20.9017C35.2898 21.0001 35.2898 21.0001 35.2894 21.1004C35.288 21.4292 35.2867 21.7581 35.2854 22.087C35.2742 24.8158 35.2638 27.5446 35.2538 30.2734C35.4741 30.1483 35.6943 30.0231 35.9145 29.8978C35.9766 29.8626 36.0387 29.8274 36.1027 29.7911C36.5106 29.5587 36.896 29.318 37.2741 29.0404C37.3275 29.0015 37.3809 28.9625 37.4359 28.9224C37.5539 28.8361 37.6716 28.7496 37.789 28.6627C38.0187 28.493 38.2493 28.3246 38.4799 28.1562C38.6497 28.0319 38.8195 27.9075 38.9892 27.7831C39.1115 27.6935 39.1115 27.6935 39.2362 27.6021C39.3123 27.546 39.3884 27.4899 39.4668 27.4322C39.5348 27.3821 39.6028 27.3321 39.6729 27.2805C39.8546 27.1456 39.8546 27.1456 40.039 26.953C40.0686 26.7127 40.0686 26.7127 40.0635 26.4286C40.0641 26.3173 40.0646 26.206 40.0651 26.0913C40.0645 25.9072 40.0645 25.9072 40.0639 25.7194C40.0645 25.5218 40.065 25.3241 40.0656 25.1264C40.066 24.9135 40.0659 24.7006 40.0658 24.4877C40.0655 24.0441 40.0669 23.6005 40.0686 23.1569C40.0732 21.8954 40.0755 20.6338 40.0762 19.3723C40.0765 18.6758 40.0783 17.9793 40.0816 17.2829C40.0835 16.842 40.0838 16.4012 40.0827 15.9603C40.0824 15.6857 40.0838 15.4112 40.0856 15.1366C40.0864 14.9488 40.0852 14.761 40.084 14.5732C40.0851 14.4611 40.0862 14.3489 40.0873 14.2334C40.0874 14.1362 40.0875 14.0389 40.0876 13.9388C40.1503 13.5975 40.2895 13.4314 40.5273 13.1835C40.7226 13.1187 40.7226 13.1187 40.9179 13.1225C40.9823 13.1212 41.0468 13.12 41.1132 13.1187C41.4387 13.2267 41.523 13.3761 41.6991 13.6718C41.7592 14.0603 41.7542 14.4464 41.7524 14.8388C41.7535 14.957 41.7545 15.0752 41.7555 15.197C41.7579 15.5202 41.7586 15.8433 41.7585 16.1665C41.7588 16.5046 41.7613 16.8427 41.7635 17.1808C41.7675 17.8206 41.7695 18.4604 41.7708 19.1003C41.7723 19.8289 41.7761 20.5574 41.78 21.286C41.788 22.7844 41.7933 24.2828 41.7968 25.7812C41.876 25.7404 41.9552 25.6997 42.0368 25.6577C42.1414 25.6045 42.246 25.5514 42.3537 25.4966C42.4571 25.4438 42.5605 25.3909 42.667 25.3365C43.5483 24.9238 44.44 24.8885 45.3597 25.1918C46.2717 25.5671 46.9885 26.2262 47.3998 27.1239C47.7552 27.983 47.8278 29.0381 47.5036 29.9194C47.1055 30.7556 46.5243 31.3291 45.8034 31.8957C45.4844 32.1472 45.1755 32.4082 44.8669 32.672C44.4172 33.0545 43.9617 33.4281 43.4993 33.7951C42.7778 34.3695 42.0692 34.9604 41.3573 35.5468C40.059 36.6162 40.059 36.6162 39.7258 36.8869C39.5194 37.0552 39.3145 37.225 39.1101 37.3958C37.2074 38.9716 35.2339 39.5794 32.8582 40.1626C32.5975 40.2267 32.337 40.2913 32.0764 40.3559C31.3228 40.5428 30.5689 40.7285 29.8149 40.9138C29.123 41.0839 28.4312 41.2542 27.7393 41.4247C26.4887 41.7328 25.2379 42.0403 23.987 42.3475C23.6442 42.4317 23.3015 42.516 22.9587 42.6003C22.415 42.7339 21.8712 42.8673 21.3274 43.0004C21.1242 43.0502 20.9211 43.1001 20.7179 43.15C20.4388 43.2187 20.1595 43.287 19.8803 43.3553C19.7976 43.3757 19.715 43.396 19.6299 43.417C19.0652 43.5546 19.0652 43.5546 18.8476 43.5546C18.8798 43.6191 18.912 43.6835 18.9452 43.7499C19.0666 45.1759 18.7177 46.4394 17.8134 47.5547C17.0496 48.3779 16.1038 48.7465 15.039 49.0234C14.955 49.0455 14.8711 49.0677 14.7846 49.0905C14.0903 49.2726 13.3936 49.4434 12.6952 49.6093C12.6076 49.6305 12.5199 49.6518 12.4296 49.6737C10.7821 50.067 8.9993 50.3659 7.47253 49.4666C7.25389 49.3261 7.04468 49.178 6.83586 49.0234C6.74925 48.9649 6.66264 48.9065 6.5734 48.8464C5.60772 47.9329 5.28626 46.641 4.96818 45.3979C4.91723 45.2018 4.86608 45.0058 4.8149 44.8098C4.76876 44.6325 4.72309 44.4552 4.67745 44.2778C4.6155 44.0428 4.55042 43.8087 4.48314 43.5751C4.36887 43.1712 4.35334 42.8983 4.39445 42.4804C4.58248 42.2088 4.71697 42.116 5.02311 41.9982C5.36635 41.9898 5.49919 42.0641 5.76164 42.2851C5.988 42.7532 6.13461 43.2226 6.25831 43.7274C6.29515 43.8721 6.33203 44.0167 6.36894 44.1613C6.42548 44.3855 6.48168 44.6098 6.53726 44.8343C6.88588 46.2358 7.21494 47.3392 8.49944 48.1429C9.67898 48.7526 11.3076 48.1906 12.5067 47.9076C12.824 47.833 13.1418 47.7615 13.4599 47.6903C13.6645 47.6431 13.869 47.5958 14.0735 47.5482C14.1672 47.5272 14.2609 47.5063 14.3574 47.4846C15.2069 47.2806 15.9201 46.9561 16.5038 46.289C16.5723 46.2165 16.6408 46.144 16.7113 46.0693C17.2349 45.3014 17.2783 44.4625 17.1874 43.5546C17.0403 42.9813 16.8292 42.4388 16.6137 41.8883C16.5502 41.7211 16.4868 41.5538 16.4237 41.3864C16.2783 41.0018 16.1316 40.6177 15.984 40.2339C15.679 39.439 15.3798 38.6419 15.0806 37.8448C14.9671 37.5426 14.8536 37.2405 14.7401 36.9384C14.7118 36.8632 14.6835 36.7879 14.6544 36.7103C14.3039 35.778 13.9518 34.8462 13.5996 33.9145C13.2641 33.0269 12.9304 32.1386 12.5976 31.2499C11.8599 31.3845 11.1423 31.5676 10.4209 31.771C10.3093 31.8023 10.1976 31.8336 10.0826 31.8659C9.84797 31.9318 9.61342 31.998 9.37892 32.0644C9.02153 32.1653 8.6638 32.2649 8.30604 32.3646C8.07714 32.4291 7.84825 32.4937 7.61939 32.5584C7.51328 32.5878 7.40716 32.6172 7.29782 32.6475C6.23014 32.9523 5.27276 33.3382 4.69962 34.3383C4.0997 35.4706 4.40398 36.7492 4.73625 37.9211C5.15411 39.4191 5.15411 39.4191 5.07804 40.1366C4.89127 40.3705 4.79739 40.4259 4.50431 40.5151C4.12366 40.5303 3.99529 40.488 3.71086 40.2343C2.96706 38.5022 2.236 36.0725 2.91931 34.2151C3.52901 32.9117 4.27797 31.9717 5.64262 31.4363C6.48073 31.1539 7.32803 30.9161 8.18168 30.685C8.36972 30.6337 8.55775 30.5824 8.74579 30.5311C8.84081 30.5052 8.84081 30.5052 8.93775 30.4788C9.00171 30.4613 9.06566 30.4439 9.13155 30.4259C9.45501 30.3378 9.77867 30.2507 10.1029 30.1653C11.7632 29.7273 13.2722 29.1904 14.7602 28.3163C14.9413 28.2226 14.9413 28.2226 15.1366 28.2226C15.1357 28.0919 15.1357 28.0919 15.1347 27.9585C15.1288 27.1339 15.1243 26.3093 15.1215 25.4847C15.1199 25.0608 15.1179 24.637 15.1145 24.2131C15.1113 23.8035 15.1096 23.3938 15.1088 22.9841C15.1083 22.8285 15.1073 22.6728 15.1057 22.5172C15.0937 21.2972 15.157 20.2726 16.0155 19.3359C16.2658 19.11 16.2658 19.11 16.5038 18.9452C16.5743 18.8929 16.6448 18.8405 16.7174 18.7865C17.4874 18.4101 18.3561 18.4265 19.1955 18.4325C19.3001 18.4318 19.4048 18.431 19.5127 18.4302C20.6063 18.4329 21.4671 18.5721 22.2823 19.3404C23.158 20.2673 23.1925 21.1524 23.2116 22.3632C23.2148 22.5055 23.2182 22.6478 23.2217 22.7901C23.2299 23.136 23.2365 23.482 23.2421 23.828C23.5966 23.6347 23.9511 23.4413 24.3163 23.2421C24.3169 23.1452 24.3175 23.0482 24.3181 22.9484C24.3237 22.0318 24.3308 21.1152 24.3393 20.1986C24.3437 19.7275 24.3475 19.2564 24.3502 18.7852C24.3527 18.3299 24.3567 17.8747 24.3616 17.4194C24.3632 17.2463 24.3643 17.0732 24.3649 16.9001C24.3699 15.6171 24.4216 14.4986 25.2929 13.4765C26.2703 12.583 27.158 12.4788 28.4362 12.4694C28.5621 12.4666 28.6881 12.4637 28.8179 12.4608C29.5579 12.4559 30.1213 12.5073 30.7616 12.8905C30.8396 12.9352 30.9175 12.9799 30.9978 13.026C31.7552 13.5828 32.2167 14.3134 32.4218 15.2343C32.4631 15.7548 32.4589 16.2737 32.4551 16.7953C32.455 16.9522 32.455 17.1092 32.4552 17.2662C32.4553 17.69 32.4535 18.1139 32.4515 18.5377C32.4497 18.9815 32.4495 19.4253 32.4491 19.8691C32.4482 20.7084 32.4458 21.5478 32.4429 22.3872C32.4396 23.3432 32.438 24.2992 32.4365 25.2552C32.4335 27.2209 32.4283 29.1866 32.4218 31.1523C32.8407 31.0878 33.2597 31.0234 33.6913 30.957C33.691 30.8402 33.6906 30.7234 33.6902 30.6031C33.6818 27.8282 33.6753 25.0533 33.6714 22.2783C33.6709 21.9365 33.6704 21.5946 33.6699 21.2527C33.6698 21.1847 33.6697 21.1166 33.6696 21.0465C33.6679 19.9459 33.6648 18.8453 33.6612 17.7447C33.6575 16.6145 33.6554 15.4844 33.6546 14.3543C33.6541 13.7198 33.6529 13.0854 33.65 12.451C33.6474 11.8534 33.6466 11.2559 33.6471 10.6583C33.647 10.4394 33.6463 10.2205 33.6448 10.0016C33.6352 8.53067 33.6451 7.37551 34.7247 6.26594C36.1576 4.98349 38.8616 5.00155 40.4296 6.05461ZM26.2267 14.8559C25.987 15.297 25.9645 15.6112 25.9654 16.1083C25.9654 16.1769 25.9654 16.2456 25.9654 16.3163C25.9654 16.5429 25.9662 16.7696 25.9669 16.9963C25.9671 17.1535 25.9673 17.3108 25.9674 17.468C25.9677 17.8817 25.9687 18.2954 25.9698 18.7091C25.9708 19.1314 25.9712 19.5536 25.9717 19.9758C25.9728 20.8041 25.9744 21.6325 25.9765 22.4609C26.0344 22.4454 26.0923 22.4299 26.152 22.4139C27.0677 22.1981 27.9447 22.311 28.7566 22.776C29.3964 23.2242 29.755 23.774 29.9354 24.5399C30.1587 25.989 29.5193 27.5128 28.7227 28.6887C28.0597 29.5593 27.2168 30.2362 26.3511 30.8955C26.2919 30.948 26.2328 31.0005 26.1718 31.0546C26.1718 31.1191 26.1718 31.1835 26.1718 31.2499C27.7187 31.2499 29.2655 31.2499 30.8593 31.2499C30.8681 29.2007 30.8753 27.1515 30.8795 25.1023C30.8815 24.1507 30.8843 23.1992 30.8888 22.2477C30.8927 21.4182 30.8952 20.5888 30.896 19.7593C30.8966 19.3202 30.8977 18.8811 30.9006 18.4421C30.9033 18.0285 30.9041 17.6149 30.9035 17.2013C30.9036 17.0498 30.9044 16.8983 30.9059 16.7468C30.9163 15.6405 30.9163 15.6405 30.4687 14.6484C29.8297 14.0414 29.291 14.0243 28.4423 14.0197C28.3388 14.0165 28.2353 14.0133 28.1287 14.01C27.2852 14.0042 26.7525 14.1819 26.2267 14.8559ZM16.9494 20.6603C16.7016 21.0468 16.6872 21.3397 16.6881 21.7894C16.6881 21.9125 16.6881 22.0357 16.6881 22.1625C16.6886 22.2969 16.6891 22.4314 16.6896 22.5658C16.6898 22.7033 16.6899 22.8408 16.69 22.9783C16.6904 23.34 16.6914 23.7017 16.6924 24.0634C16.6934 24.4326 16.6939 24.8018 16.6944 25.171C16.6954 25.8952 16.6971 26.6195 16.6991 27.3437C17.8158 26.7922 18.92 26.2197 20.0194 25.6347C20.1723 25.5535 20.3251 25.4724 20.478 25.3913C20.8461 25.1959 21.214 25.0003 21.5819 24.8046C21.5916 24.2868 21.5987 23.7691 21.6034 23.2513C21.6054 23.0753 21.608 22.8993 21.6114 22.7234C21.6162 22.4698 21.6184 22.2163 21.6201 21.9627C21.6221 21.8845 21.6241 21.8064 21.6262 21.7258C21.6264 21.2072 21.5318 20.9211 21.1913 20.5077C20.5717 19.9346 19.973 19.9962 19.165 19.9889C19.0097 19.9847 19.0097 19.9847 18.8514 19.9804C18.0689 19.974 17.5005 20.0809 16.9494 20.6603ZM25.0976 24.6093C24.8876 24.7217 24.6775 24.834 24.4674 24.9461C24.1165 25.1335 23.7658 25.3211 23.4155 25.5097C22.6811 25.9051 21.944 26.2946 21.2035 26.6784C20.4865 27.0502 19.775 27.4305 19.0673 27.8197C18.1432 28.3279 17.2095 28.8161 16.2718 29.2985C15.5306 29.6801 14.7952 30.0711 14.0624 30.4687C14.2909 31.2918 14.5878 32.0865 14.8914 32.8841C14.9442 33.0239 14.997 33.1636 15.0498 33.3033C15.2187 33.7502 15.3882 34.1968 15.5578 34.6435C15.7889 35.2527 16.0199 35.862 16.2505 36.4715C16.2788 36.5462 16.3071 36.6209 16.3363 36.6979C16.6823 37.6124 17.0222 38.5285 17.3492 39.45C17.397 39.5841 17.397 39.5841 17.4459 39.7209C17.5868 40.1159 17.7259 40.5114 17.8614 40.9083C17.9089 41.0422 17.9565 41.1761 18.0041 41.31C18.0427 41.4221 18.0813 41.5342 18.121 41.6496C18.2352 41.9072 18.2352 41.9072 18.4553 41.9716C18.8923 42.002 19.2763 41.8915 19.6985 41.7844C19.794 41.761 19.8895 41.7376 19.988 41.7136C20.3061 41.6355 20.6238 41.5559 20.9415 41.4764C21.1658 41.421 21.3902 41.3657 21.6146 41.3105C22.2146 41.1626 22.8143 41.0134 23.4139 40.8639C24.031 40.7102 24.6483 40.5573 25.2655 40.4043C25.9986 40.2225 26.7317 40.0406 27.4647 39.8581C28.7202 39.5456 29.9764 39.2365 31.2349 38.9361C31.7013 38.8245 32.1674 38.7114 32.6336 38.5986C32.8672 38.5425 33.101 38.4871 33.3351 38.4325C35.0076 38.0419 36.5203 37.5314 37.8295 36.3769C37.8938 36.3225 37.9582 36.2681 38.0245 36.2121C38.1514 36.1047 38.278 35.9967 38.404 35.8882C38.6341 35.6906 38.8694 35.4997 39.1051 35.3088C39.6368 34.8733 40.167 34.4362 40.6974 33.9992C41.1627 33.6158 41.629 33.2336 42.0959 32.8521C42.5411 32.4874 42.9852 32.1213 43.4292 31.755C43.7422 31.4969 44.0554 31.2391 44.371 30.984C44.5107 30.8709 44.5107 30.8709 44.6532 30.7555C44.7323 30.692 44.8114 30.6284 44.8928 30.5629C45.4389 30.0957 46.0266 29.561 46.1169 28.8104C46.1392 28.1488 45.9977 27.6655 45.5455 27.1716C45.1023 26.7658 44.7077 26.5878 44.1039 26.5319C43.3429 26.5975 42.7919 26.9445 42.1935 27.3864C42.0468 27.4923 41.9001 27.5983 41.7533 27.7042C41.6793 27.7581 41.6052 27.8119 41.5289 27.8675C41.1872 28.1153 40.842 28.3581 40.4967 28.601C40.359 28.6981 40.2213 28.7953 40.0836 28.8924C39.9385 28.9947 39.7934 29.0969 39.6484 29.1991C39.5693 29.2548 39.4903 29.3105 39.4089 29.3679C38.8391 29.7694 38.268 30.169 37.6952 30.5663C37.6259 30.6145 37.5566 30.6627 37.4851 30.7123C35.4241 32.1383 33.5019 32.747 30.9882 32.7441C30.845 32.7445 30.7017 32.7449 30.5585 32.7454C30.2609 32.7461 29.9634 32.7461 29.6658 32.7456C29.2859 32.745 28.906 32.7467 28.5261 32.7489C28.2314 32.7504 27.9367 32.7505 27.6419 32.7502C27.5018 32.7502 27.3618 32.7507 27.2217 32.7517C25.6965 32.7612 25.6965 32.7612 25.1228 32.2787C24.7372 31.7775 24.7372 31.7775 24.7069 31.4452C24.6969 31.3405 24.6868 31.2358 24.6764 31.1278C24.7366 30.4054 25.0017 30.0408 25.5396 29.5774C25.8125 29.35 26.0889 29.1271 26.3671 28.9062C27.529 27.9766 28.2874 26.7363 28.5129 25.2483C28.5174 24.8301 28.3828 24.542 28.1249 24.2187C27.8038 23.92 27.5907 23.8381 27.1606 23.7548C26.4108 23.7979 25.7421 24.2584 25.0976 24.6093Z" fill="black"/>
<path d="M24.1232 -0.0157363C24.1926 -0.0162212 24.262 -0.016706 24.3336 -0.0172056C24.5633 -0.018632 24.793 -0.0192976 25.0228 -0.0198371C25.1827 -0.020399 25.3427 -0.0209613 25.5027 -0.021524C25.8383 -0.02255 26.1739 -0.0231207 26.5095 -0.0234611C26.9384 -0.0239959 27.3674 -0.0263408 27.7963 -0.0291224C28.1269 -0.030946 28.4575 -0.03145 28.7881 -0.0315994C28.9462 -0.0318941 29.1042 -0.0326751 29.2623 -0.0339612C29.4841 -0.0356366 29.7058 -0.0354414 29.9276 -0.0348098C30.0536 -0.0351658 30.1796 -0.0355219 30.3094 -0.0358887C30.9059 0.0244866 31.4079 0.255621 31.8358 0.683593C32.4044 1.56037 32.3396 2.49719 32.3405 3.50876C32.3408 3.64142 32.3412 3.77409 32.3415 3.90675C32.3421 4.18403 32.3423 4.4613 32.3422 4.73857C32.3422 5.09174 32.3435 5.44489 32.3452 5.79806C32.3463 6.07186 32.3465 6.34566 32.3464 6.61947C32.3466 6.8123 32.3477 7.00512 32.3487 7.19795C32.3463 8.1677 32.3056 9.10011 31.6405 9.86328C30.9315 10.4214 30.2845 10.5245 29.3944 10.4492C28.8372 10.3243 28.507 10.0989 28.1798 9.63135C27.8135 9.00931 27.7097 8.52604 27.7343 7.8125C27.0392 8.28561 26.4638 8.86793 25.8788 9.46655C25.3392 10.0167 24.8008 10.56 24.2144 11.0609C23.7601 11.4641 23.3442 11.9101 22.9209 12.3453C21.5134 13.7733 21.5134 13.7733 20.4467 13.8367C19.3788 13.8257 18.3864 13.2097 17.4979 12.6602C17.2178 12.4817 17.2178 12.4817 17.0007 12.5128C16.7208 12.6293 16.561 12.799 16.3479 13.0146C16.2582 13.1045 16.1686 13.1945 16.0762 13.2872C15.9776 13.3877 15.8789 13.4881 15.7803 13.5886C15.6759 13.6939 15.5714 13.7991 15.4669 13.9043C15.2418 14.1309 15.0172 14.358 14.7929 14.5855C14.4379 14.9454 14.0816 15.3041 13.7251 15.6626C12.7755 16.618 11.8274 17.575 10.8802 18.5328C10.2582 19.1618 9.63545 19.7901 9.01139 20.4171C8.6573 20.7729 8.30435 21.1299 7.95222 21.4877C7.73221 21.7107 7.51116 21.9327 7.28983 22.1545C7.18788 22.257 7.08634 22.36 6.98527 22.4634C6.31871 23.1449 5.71729 23.716 4.73012 23.7732C3.89328 23.7267 3.29448 23.3695 2.73427 22.7539C2.35891 22.1674 2.32834 21.4807 2.4413 20.8008C2.74272 20.001 3.23124 19.4551 3.83476 18.8652C3.92517 18.7748 4.01558 18.6845 4.10874 18.5914C4.35464 18.3458 4.602 18.1017 4.84966 17.8578C5.10988 17.6011 5.36865 17.3428 5.62757 17.0848C6.11795 16.5964 6.60951 16.1093 7.10156 15.6226C7.82231 14.9096 8.54136 14.1949 9.26028 13.4801C9.33974 13.4011 9.33974 13.4011 9.4208 13.3205C9.52652 13.2154 9.63223 13.1103 9.73794 13.0052C10.0455 12.6994 10.3535 12.3941 10.6618 12.089C10.8076 11.9447 10.9534 11.8002 11.0991 11.6557C11.2759 11.4804 11.4528 11.3054 11.63 11.1305C12.0529 10.7107 12.4603 10.2843 12.8478 9.83145C13.1947 9.42751 13.5732 9.05251 13.9464 8.67309C14.0693 8.54479 14.0693 8.54479 14.1946 8.41389C14.8735 7.72558 15.4972 7.21798 16.492 7.16362C17.1561 7.1937 17.6744 7.44036 18.2555 7.74536C18.3533 7.79414 18.451 7.84292 18.5517 7.89318C19.2683 8.25361 19.2683 8.25361 19.5867 8.47595C19.8136 8.6219 19.8136 8.6219 20.0292 8.53412C20.2196 8.39488 20.3816 8.25221 20.5458 8.08296C20.6072 8.02059 20.6685 7.95821 20.7316 7.89394C20.8262 7.79622 20.8262 7.79622 20.9227 7.69653C21.2931 7.31597 21.663 6.94224 22.0656 6.59561C22.495 6.22599 22.8929 5.82883 23.2909 5.42602C23.3619 5.35459 23.4329 5.28314 23.5061 5.20954C23.6787 5.03575 23.8511 4.86174 24.0233 4.6875C23.9188 4.6588 23.8144 4.6301 23.7067 4.60052C22.986 4.38775 22.503 4.13942 22.0702 3.51562C21.7343 2.87733 21.7313 2.19766 21.889 1.50986C22.1137 0.863588 22.5568 0.424086 23.1444 0.0976555C23.4878 -0.0168062 23.7607 -0.013813 24.1232 -0.0157363ZM23.535 1.75781C23.3963 2.03524 23.4067 2.23191 23.4374 2.53906C23.6554 2.81717 23.7841 2.91504 24.121 3.02734C24.3049 3.03855 24.4891 3.04475 24.6734 3.04794C24.7812 3.05071 24.8891 3.05348 25.0003 3.05633C25.2279 3.06142 25.4555 3.06574 25.6831 3.0693C25.791 3.07233 25.8989 3.07535 26.01 3.07846C26.1583 3.08136 26.1583 3.08136 26.3097 3.08433C26.5624 3.125 26.5624 3.125 26.7396 3.25494C26.9487 3.54936 26.9127 3.75184 26.8554 4.10156C26.6599 4.39499 26.4217 4.63535 26.1718 4.88281C26.1156 4.94135 26.0595 4.99988 26.0016 5.06019C25.7244 5.34575 25.4368 5.61321 25.1338 5.8712C24.6594 6.28434 24.2202 6.72959 23.7792 7.17773C23.2857 7.67916 22.79 8.1664 22.256 8.6246C21.8793 8.95807 21.5345 9.32477 21.1852 9.68647C21.1283 9.74444 21.0714 9.80241 21.0128 9.86214C20.9625 9.91404 20.9122 9.96594 20.8605 10.0194C20.5588 10.2816 20.397 10.3557 19.9878 10.3356C19.6006 10.2475 19.3111 10.1141 18.9631 9.92393C18.839 9.85749 18.7148 9.79105 18.5906 9.72462C18.398 9.61992 18.2057 9.51483 18.0134 9.40955C17.8259 9.30737 17.6377 9.20668 17.4495 9.10606C17.3382 9.04532 17.227 8.98457 17.1124 8.92198C16.7804 8.78217 16.5668 8.75372 16.2108 8.78906C16.0231 8.88503 16.0231 8.88503 15.869 9.04541C15.8037 9.10722 15.7384 9.16903 15.671 9.23271C15.5914 9.31189 15.5117 9.39107 15.4296 9.47266C15.3196 9.58011 15.2096 9.68756 15.0996 9.795C14.4081 10.4751 14.4081 10.4751 13.7574 11.1938C13.3426 11.6697 12.8986 12.1135 12.4511 12.5583C12.3123 12.6969 12.1735 12.8355 12.0347 12.974C11.887 13.1214 11.7392 13.2686 11.5914 13.4159C11.2825 13.7234 10.9741 14.0312 10.6657 14.3392C10.0119 14.9919 9.35773 15.6442 8.7035 16.2964C7.99505 17.0027 7.28666 17.7091 6.57875 18.4159C6.272 18.7222 5.96502 19.0282 5.65785 19.334C5.51322 19.4781 5.36871 19.6223 5.22424 19.7665C5.04794 19.9426 4.87145 20.1184 4.69476 20.2941C4.57895 20.4099 4.57895 20.4099 4.4608 20.528C4.39337 20.5952 4.32593 20.6624 4.25645 20.7317C4.03055 20.9747 4.00477 21.085 3.96718 21.4233C3.97088 21.7853 3.97088 21.7853 4.21132 22.0215C4.56404 22.2055 4.69876 22.1736 5.07802 22.0703C5.31741 21.9026 5.31741 21.9026 5.53316 21.6745C5.61925 21.5893 5.70535 21.504 5.79405 21.4161C5.88771 21.3209 5.98135 21.2256 6.07496 21.1303C6.17486 21.0305 6.27486 20.9307 6.37496 20.831C6.64625 20.5603 6.91599 20.2881 7.18548 20.0156C7.46831 19.7301 7.75248 19.4459 8.03651 19.1615C8.51368 18.6835 8.98996 18.2045 9.46561 17.7249C10.1345 17.0505 10.8051 16.3777 11.476 15.7053C11.9422 15.2378 12.4081 14.7699 12.8739 14.3019C12.9864 14.1889 13.0988 14.0759 13.2113 13.963C13.5326 13.6403 13.8537 13.3173 14.1743 12.994C14.2711 12.8965 14.368 12.799 14.4649 12.7016C14.9495 12.2148 15.4237 11.7266 15.8633 11.1985C16.1455 10.8956 16.3323 10.7538 16.7468 10.6884C17.3477 10.7122 17.8574 11.0343 18.3776 11.3098C18.4817 11.3633 18.5859 11.4167 18.6932 11.4717C19.4426 11.8584 19.4426 11.8584 19.7876 12.0753C20.1169 12.2624 20.3301 12.2591 20.703 12.207C20.9275 12.0517 21.0892 11.9166 21.2767 11.7249C21.3296 11.6736 21.3824 11.6223 21.4368 11.5695C21.6174 11.3933 21.795 11.2144 21.9725 11.0352C22.1138 10.894 22.255 10.7528 22.3964 10.6117C22.611 10.3972 22.8254 10.1825 23.0381 9.96611C23.3546 9.64545 23.6734 9.33477 24.0153 9.04121C24.4819 8.63953 24.9101 8.20221 25.3417 7.76367C25.8399 7.25749 26.3402 6.76462 26.8793 6.30197C27.1062 6.10386 27.3168 5.89216 27.5267 5.67627C28.0052 5.18449 28.0052 5.18449 28.4606 5.15137C28.8085 5.17578 28.8085 5.17578 28.9742 5.28569C29.1583 5.5506 29.1391 5.75793 29.1411 6.07834C29.1433 6.19856 29.1454 6.31878 29.1476 6.44264C29.1489 6.63128 29.1489 6.63128 29.1503 6.82373C29.152 7.0717 29.155 7.31966 29.1594 7.5676C29.1601 7.67773 29.1608 7.78786 29.1615 7.90133C29.2151 8.3313 29.3851 8.5844 29.6874 8.88672C29.9721 8.93559 29.9721 8.93559 30.2733 8.88672C30.5514 8.66874 30.6493 8.54004 30.7616 8.20312C30.7712 8.01304 30.7751 7.82265 30.7758 7.63233C30.7764 7.51498 30.777 7.39762 30.7777 7.27672C30.7778 7.14977 30.7779 7.02281 30.778 6.89201C30.7783 6.76028 30.7787 6.62854 30.779 6.49681C30.7796 6.22057 30.7798 5.94433 30.7797 5.66809C30.7797 5.3151 30.781 4.96213 30.7827 4.60914C30.7838 4.33694 30.784 4.06474 30.7839 3.79253C30.7841 3.59942 30.7852 3.40631 30.7862 3.21321C30.7859 3.09493 30.7856 2.97666 30.7853 2.8548C30.7855 2.69934 30.7855 2.69934 30.7858 2.54074C30.7584 2.20683 30.716 1.96135 30.5663 1.66016C30.1757 1.46688 29.8165 1.43994 29.3853 1.43802C29.2699 1.43709 29.1545 1.43616 29.0357 1.4352C28.9123 1.43529 28.789 1.43538 28.662 1.43547C28.4702 1.43484 28.4702 1.43484 28.2746 1.4342C28.0047 1.43348 27.7348 1.4335 27.4649 1.43402C27.1202 1.43458 26.7754 1.43293 26.4307 1.43066C26.1002 1.42887 25.7698 1.42924 25.4393 1.42937C25.316 1.42847 25.1927 1.42757 25.0657 1.42664C24.9503 1.42725 24.8349 1.42786 24.7161 1.42848C24.6151 1.42842 24.514 1.42836 24.4099 1.4283C24.0666 1.47172 23.831 1.58105 23.535 1.75781Z" fill="black"/>
<path d="M13.5009 41.516C14.2608 42.3105 14.5016 43.0793 14.4797 44.16C14.4198 44.9933 14.0049 45.6471 13.3788 46.1913C12.6344 46.66 11.884 46.9052 11.0003 46.7322C10.1704 46.5135 9.51032 46.163 9.03919 45.4284C8.61817 44.646 8.51683 43.9386 8.69129 43.0663C8.98942 42.1562 9.49498 41.5949 10.3156 41.1258C11.3778 40.6192 12.559 40.9002 13.5009 41.516ZM10.3698 43.048C10.2029 43.3554 10.168 43.5956 10.1561 43.9452C10.3347 44.4997 10.5551 44.8534 11.0595 45.1476C11.4925 45.2559 11.8963 45.2425 12.2828 45.0149C12.6332 44.7373 12.8539 44.4721 12.9233 44.0284C12.9326 43.4971 12.8707 43.1832 12.4999 42.7733C11.7134 42.2371 11.0224 42.3954 10.3698 43.048Z" fill="black"/>
</g>
<defs>
<clipPath id="clip0_249_599">
<rect width="50" height="50" fill="white"/>
</clipPath>
</defs>
</svg>