<svg width="50" height="50" viewBox="0 0 50 50" fill="none" xmlns="http://www.w3.org/2000/svg">
<path d="M20.8335 45.8333V41.6667H47.9168V45.8333H20.8335ZM22.9168 39.5833C22.9168 36.7708 23.8022 34.3142 25.5731 32.2135C27.3439 30.1128 29.5835 28.8194 32.2918 28.3333V27.0312C32.2918 26.441 32.4915 25.9462 32.8908 25.5469C33.2901 25.1476 33.7849 24.9479 34.3752 24.9479C34.9654 24.9479 35.4602 25.1476 35.8595 25.5469C36.2588 25.9462 36.4585 26.441 36.4585 27.0312V28.3333C39.1321 28.8194 41.363 30.1128 43.1512 32.2135C44.9394 34.3142 45.8335 36.7708 45.8335 39.5833H22.9168ZM28.3856 35.3646H40.2606C39.6009 34.4271 38.7588 33.6719 37.7345 33.099C36.7102 32.526 35.5904 32.2396 34.3752 32.2396C33.1252 32.2396 31.9793 32.526 30.9377 33.099C29.896 33.6719 29.0453 34.4271 28.3856 35.3646ZM2.0835 27.0833V4.16667H14.5835V7.1875L29.1668 3.125L45.8335 8.33333V10.4167C45.8335 12.1528 45.2259 13.6285 44.0106 14.8438C42.7953 16.059 41.3196 16.6667 39.5835 16.6667H35.4168V17.9167C35.4168 18.7847 35.1651 19.5747 34.6616 20.2865C34.1581 20.9983 33.5071 21.5104 32.7085 21.8229L18.646 27.0833H2.0835ZM6.25016 22.9167H10.4168V8.33333H6.25016V22.9167ZM14.5835 22.9167H17.9168L30.0002 18.4896C30.3821 18.3507 30.6859 18.1163 30.9116 17.7865C31.1373 17.4566 31.2502 17.0833 31.2502 16.6667H27.5522L21.4585 18.6458L20.2085 14.6875L26.7189 12.5H39.5835C39.896 12.5 40.2866 12.3872 40.7554 12.1615C41.2241 11.9358 41.4585 11.6667 41.4585 11.3542L29.0627 7.5L14.5835 11.4583V22.9167Z" fill="black"/>
</svg>